<svg id="Body" xmlns="http://www.w3.org/2000/svg" viewBox="0 0 191.76 227.31"><defs><style>.cls-1{fill:#fff;}</style></defs><path class="cls-1" d="M105.5,105.5s18-84.84,86.52-65.42,25.33,103,25.33,103-1.52,4.77,3.82,5.11,15.84-1.34,24.09,0c0,0-10.76,22.34-40.76,23.34,0,0-20,52-93,58,0,0-2,1-2,2s0,27-17,33a29.06,29.06,0,0,1-8-32s-21,5-31-4c0,0,5.33-12.66,19.16-13.83s13.84.83,18.84-1.17,7-10,6-18-4-54-3-57c0,0-18.52-32.53-6.76-52.26,0,0,.76-.74,3.76,1.26S105.5,105.5,105.5,105.5Z" transform="translate(-53.5 -37.19)"/></svg>